<svg id="Layer_3" enable-background="new 0 0 64 64" height="512" viewBox="0 0 64 64" width="512" xmlns="http://www.w3.org/2000/svg"><g><g><path d="m2 44h56v14h-56z" fill="#7e848d" transform="matrix(-1 0 0 -1 60 102)"/></g><g><path d="m2 44h53v14h-53z" fill="#a8b0bc"/></g><g><path d="m2 26h56v14h-56z" fill="#7e848d" transform="matrix(-1 0 0 -1 60 66)"/></g><g><path d="m2 26h53v14h-53z" fill="#a8b0bc"/></g><g><path d="m28 30h6v6h-6z" fill="#a8575d"/></g><g><path d="m28 30h3v6h-3z" fill="#e0747c"/></g><g><path d="m38 30h6v6h-6z" fill="#a8575d"/></g><g><path d="m38 30h3v6h-3z" fill="#e0747c"/></g><g><path d="m48 30h6v6h-6z" fill="#a8575d"/></g><g><path d="m48 30h3v6h-3z" fill="#e0747c"/></g><g><path d="m48 48h6v6h-6z" fill="#a8575d"/></g><g><path d="m48 48h3v6h-3z" fill="#e0747c"/></g><g><path d="m38 48h6v6h-6z" fill="#a8575d"/></g><g><path d="m38 48h3v6h-3z" fill="#e0747c"/></g><g><path d="m28 48h6v6h-6z" fill="#a8575d"/></g><g><path d="m31 48h-3v6h3" fill="#e0747c"/></g><g><path d="m40.816 4h-34.816v4h30.52c1.131-1.62 2.597-2.981 4.296-4z" fill="#5f636a"/></g><g><path d="m34 16c0-2.977.936-5.731 2.52-8h-34.52v14h33.365c-.866-1.821-1.365-3.85-1.365-6z" fill="#a8b0bc"/></g><g><circle cx="20" cy="15" fill="#a8575d" r="3"/></g><g><ellipse cx="18.5" cy="15" fill="#e0747c" rx="1.5" ry="2.584"/></g><g><circle cx="10" cy="15" fill="#a8575d" r="3"/></g><g><ellipse cx="8.5" cy="15" fill="#e0747c" rx="1.5" ry="2.584"/></g><g><circle cx="10" cy="33" fill="#a8575d" r="3"/></g><g><ellipse cx="8.5" cy="33" fill="#e0747c" rx="1.5" ry="2.584"/></g><g><circle cx="20" cy="33" fill="#a8575d" r="3"/></g><g><ellipse cx="18.5" cy="33" fill="#e0747c" rx="1.5" ry="2.584"/></g><g><circle cx="20" cy="51" fill="#a8575d" r="3"/></g><g><path d="m20 51c0-1.108-.607-2.064-1.5-2.584-.893.52-1.5 1.476-1.5 2.584s.607 2.064 1.5 2.584c.893-.52 1.5-1.476 1.5-2.584" fill="#e0747c"/></g><g><circle cx="10" cy="51" fill="#a8575d" r="3"/></g><g><path d="m10 51c0-1.108-.607-2.064-1.5-2.584-.893.52-1.5 1.476-1.5 2.584s.607 2.064 1.5 2.584c.893-.52 1.5-1.476 1.5-2.584" fill="#e0747c"/></g><g><path d="m6 40h48v4h-48z" fill="#3f4247"/></g><g><path d="m6 40h45v4h-45z" fill="#5f636a"/></g><g><path d="m6 58h48v4h-48z" fill="#3f4247"/></g><g><path d="m6 58h45v4h-45z" fill="#5f636a"/></g><g><circle cx="48" cy="16" fill="#8bd2f5" r="14"/></g><g><path d="m34 16c0-1.391.21-2.732.587-4h-6.587v6h6.159c-.094-.655-.159-1.319-.159-2z" fill="#e0747c"/></g><g><path d="m35.365 22h-29.365v4h32.211c-1.172-1.147-2.133-2.502-2.846-4z" fill="#5f636a"/></g><g><path d="m41 13-2-2h-4.064c-.596 1.555-.936 3.236-.936 5 0 4.889 2.51 9.188 6.308 11.692l6.692-6.692v-4l-4-4z" fill="#ac876c"/></g><g><path d="m61 10.824c-2.059-5.167-7.098-8.824-13-8.824-1.764 0-3.445.34-5 .936v.064l3 3h4l2 2v2l2 2h7z" fill="#96cc7f"/></g><g><path d="m50 27v2.841c5.996-.86 10.757-5.508 11.781-11.45l-.781-.391h-2l-2-2h-4l-2 2v2l2 2v2z" fill="#96cc7f"/></g><g><path d="m35.348 23h-33.348c-.553 0-1-.448-1-1v-14c0-.552.447-1 1-1h34.512v2h-33.512v12h32.348z"/></g><g><path d="m34 19h-6c-.553 0-1-.448-1-1v-6c0-.552.447-1 1-1h6c.553 0 1 .448 1 1v6c0 .552-.447 1-1 1zm-5-2h4v-4h-4z"/></g><g><path d="m20 19c-2.206 0-4-1.794-4-4s1.794-4 4-4 4 1.794 4 4-1.794 4-4 4zm0-6c-1.103 0-2 .897-2 2s.897 2 2 2 2-.897 2-2-.897-2-2-2z"/></g><g><path d="m10 19c-2.206 0-4-1.794-4-4s1.794-4 4-4 4 1.794 4 4-1.794 4-4 4zm0-6c-1.103 0-2 .897-2 2s.897 2 2 2 2-.897 2-2-.897-2-2-2z"/></g><g><path d="m58 41h-56c-.553 0-1-.447-1-1v-14c0-.552.447-1 1-1h36.205v2h-35.205v12h54v-13h2v14c0 .553-.447 1-1 1z"/></g><g><path d="m54 37h-6c-.553 0-1-.447-1-1v-6h2v5h4v-6h2v7c0 .553-.447 1-1 1z"/></g><g><path d="m44 37h-6c-.553 0-1-.447-1-1v-6c0-.552.447-1 1-1h6c.553 0 1 .448 1 1v6c0 .553-.447 1-1 1zm-5-2h4v-4h-4z"/></g><g><path d="m34 37h-6c-.553 0-1-.447-1-1v-6c0-.552.447-1 1-1h6c.553 0 1 .448 1 1v6c0 .553-.447 1-1 1zm-5-2h4v-4h-4z"/></g><g><path d="m20 37c-2.206 0-4-1.794-4-4s1.794-4 4-4 4 1.794 4 4-1.794 4-4 4zm0-6c-1.103 0-2 .897-2 2s.897 2 2 2 2-.897 2-2-.897-2-2-2z"/></g><g><path d="m10 37c-2.206 0-4-1.794-4-4s1.794-4 4-4 4 1.794 4 4-1.794 4-4 4zm0-6c-1.103 0-2 .897-2 2s.897 2 2 2 2-.897 2-2-.897-2-2-2z"/></g><g><path d="m58 59h-56c-.553 0-1-.447-1-1v-14c0-.553.447-1 1-1h56c.553 0 1 .447 1 1v14c0 .553-.447 1-1 1zm-55-2h54v-12h-54z"/></g><g><path d="m54 55h-6c-.553 0-1-.447-1-1v-6c0-.553.447-1 1-1h6c.553 0 1 .447 1 1v6c0 .553-.447 1-1 1zm-5-2h4v-4h-4z"/></g><g><path d="m44 55h-6c-.553 0-1-.447-1-1v-6c0-.553.447-1 1-1h6c.553 0 1 .447 1 1v6c0 .553-.447 1-1 1zm-5-2h4v-4h-4z"/></g><g><path d="m34 55h-6c-.553 0-1-.447-1-1v-6c0-.553.447-1 1-1h6c.553 0 1 .447 1 1v6c0 .553-.447 1-1 1zm-5-2h4v-4h-4z"/></g><g><path d="m20 55c-2.206 0-4-1.794-4-4s1.794-4 4-4 4 1.794 4 4-1.794 4-4 4zm0-6c-1.103 0-2 .897-2 2s.897 2 2 2 2-.897 2-2-.897-2-2-2z"/></g><g><path d="m10 55c-2.206 0-4-1.794-4-4s1.794-4 4-4 4 1.794 4 4-1.794 4-4 4zm0-6c-1.103 0-2 .897-2 2s.897 2 2 2 2-.897 2-2-.897-2-2-2z"/></g><g><path d="m5 22h2v4h-2z"/></g><g><path d="m53 40h2v4h-2z"/></g><g><path d="m5 40h2v4h-2z"/></g><g><path d="m48 31c-8.271 0-15-6.729-15-15s6.729-15 15-15 15 6.729 15 15-6.729 15-15 15zm0-28c-7.168 0-13 5.832-13 13s5.832 13 13 13 13-5.832 13-13-5.832-13-13-13z"/></g><g><path d="m61 13h-7c-.266 0-.52-.105-.707-.293l-2-2c-.188-.187-.293-.442-.293-.707v-1.586l-1.414-1.414h-3.586c-.266 0-.52-.105-.707-.293l-3-3 1.414-1.414 2.707 2.707h3.586c.266 0 .52.105.707.293l2 2c.188.187.293.442.293.707v1.586l1.414 1.414h6.586z"/></g><g><path d="m40.707 28.707-1.414-1.414 6.707-6.707v-3.172l-3.414-3.414h-1.586c-.266 0-.52-.105-.707-.293l-1.707-1.707h-3.586v-2h4c.266 0 .52.105.707.293l1.707 1.707h1.586c.266 0 .52.105.707.293l4 4c.188.187.293.442.293.707v4c0 .265-.105.52-.293.707z"/></g><g><path d="m51 30h-2v-3c0-.265.105-.52.293-.707l2.707-2.707v-1.172l-1.707-1.707c-.188-.187-.293-.442-.293-.707v-2c0-.265.105-.52.293-.707l2-2c.187-.188.441-.293.707-.293h4c.266 0 .52.105.707.293l1.707 1.707h1.586v2h-2c-.266 0-.52-.105-.707-.293l-1.707-1.707h-3.172l-1.414 1.414v1.172l1.707 1.707c.188.187.293.442.293.707v2c0 .265-.105.52-.293.707l-2.707 2.707z"/></g><g><path d="m54 63h-48c-.553 0-1-.447-1-1v-4h2v3h46v-3h2v4c0 .553-.447 1-1 1z"/></g><g><path d="m7 8h-2v-4c0-.552.447-1 1-1h34.785v2h-33.785z"/></g></g></svg>