<svg xmlns="http://www.w3.org/2000/svg" width="45.714" height="48.001" viewBox="0 0 45.714 48.001">
  <g>
    <path d="M27.783,2.79,28.79,0,20.108,1.556,25.8,8.3l.972-2.693A18.544,18.544,0,0,1,35.231,24.33l2.91.474A21.476,21.476,0,0,0,27.783,2.79Z" fill="#ffbd66"/>
    <path d="M18.89,7.833a14.962,14.962,0,0,0-4.929-.39l-1.231,5.1a10.4,10.4,0,0,0-1.373.45l-3.99-3.41A15.147,15.147,0,0,0,3.6,12.793l2.74,4.481a10.322,10.322,0,0,0-.66,1.286l-5.236.413A15.137,15.137,0,0,0,.055,23.9L5.16,25.134a10.684,10.684,0,0,0,.446,1.373l-3.41,4a15.232,15.232,0,0,0,3.213,3.76l4.478-2.74a9.541,9.541,0,0,0,1.285.658l.412,5.233a14.958,14.958,0,0,0,4.928.39l1.232-5.1a9.506,9.506,0,0,0,1.371-.447l4,3.412a15.334,15.334,0,0,0,3.763-3.206l-2.742-4.484a9.559,9.559,0,0,0,.661-1.285l5.235-.415a15.354,15.354,0,0,0,.391-4.927l-5.1-1.233a10.2,10.2,0,0,0-.449-1.373l3.413-3.993a15.275,15.275,0,0,0-3.21-3.76l-4.483,2.739a10.212,10.212,0,0,0-1.283-.661Z" fill="#7a8e9b"/>
    <circle cx="15.237" cy="22.625" r="5.897" fill="#c6c6c6"/>
    <path d="M33.156,30.479a8.971,8.971,0,0,0-2.517,1.555l1.209,2.9a6.207,6.207,0,0,0-.5.7L28.214,35.4a9.067,9.067,0,0,0-.684,2.879l2.906,1.194a6.1,6.1,0,0,0,.137.854l-2.381,2.051a8.978,8.978,0,0,0,.673,1.321,9.072,9.072,0,0,0,.88,1.2l2.9-1.21a6.342,6.342,0,0,0,.7.5l-.233,3.134a9.116,9.116,0,0,0,2.88.68L37.185,45.1a5.65,5.65,0,0,0,.853-.136l2.049,2.38A9,9,0,0,0,42.6,45.786l-1.209-2.9a5.6,5.6,0,0,0,.5-.7l3.134.234a9.189,9.189,0,0,0,.683-2.878l-2.908-1.194a5.621,5.621,0,0,0-.135-.854l2.38-2.051A9.178,9.178,0,0,0,43.5,32.928l-2.9,1.21a6.06,6.06,0,0,0-.7-.5l.236-3.134a9.158,9.158,0,0,0-2.878-.68l-1.2,2.906a6.123,6.123,0,0,0-.853.135Z" fill="#525c6b"/>
    <circle cx="36.62" cy="38.909" r="2.951" fill="#e2e2e2"/>
  </g>
</svg>
